<svg width="40" height="40" viewBox="0 0 40 40" fill="none" xmlns="http://www.w3.org/2000/svg">
<path d="M20 0C31.0457 0 40 8.9543 40 20C40 31.0457 31.0457 40 20 40C8.9543 40 0 31.0457 0 20C0 8.9543 8.9543 0 20 0ZM14 11.001C12.9392 11.001 11.922 11.4228 11.1719 12.1729C10.4218 12.9229 10.0001 13.9402 10 15.001V23.001C10 24.0618 10.4218 25.079 11.1719 25.8291C11.922 26.5792 12.9391 27.001 14 27.001H15V29.001C15 29.3611 15.1936 29.6935 15.5068 29.8711C15.8203 30.0486 16.2057 30.0438 16.5146 29.8584L21.2773 27.001H26C27.0609 27.001 28.078 26.5792 28.8281 25.8291C29.5782 25.079 30 24.0618 30 23.001V15.001C29.9999 13.9402 29.5782 12.9229 28.8281 12.1729C28.078 11.4228 27.0608 11.001 26 11.001H14ZM26 13.001C26.5304 13.001 27.039 13.2119 27.4141 13.5869C27.7891 13.9619 27.9999 14.4707 28 15.001V23.001L27.9902 23.1982C27.9449 23.6562 27.7422 24.0868 27.4141 24.415C27.0858 24.7433 26.6552 24.9458 26.1973 24.9912L26 25.001H21C20.8642 25.001 20.7304 25.029 20.6064 25.082L20.4854 25.1436L17 27.2344V26.001C16.9998 25.4488 16.5522 25.001 16 25.001H14C13.4696 25.001 12.961 24.7901 12.5859 24.415C12.2577 24.0868 12.0551 23.6562 12.0098 23.1982L12 23.001V15.001C12.0001 14.4707 12.2109 13.9619 12.5859 13.5869C12.961 13.2119 13.4696 13.001 14 13.001H26ZM16 20.001C15.4478 20.001 15.0002 20.4488 15 21.001C15 21.5533 15.4477 22.001 16 22.001H22C22.5523 22.001 23 21.5533 23 21.001C22.9998 20.4488 22.5522 20.001 22 20.001H16ZM16 16.001C15.4478 16.001 15.0002 16.4488 15 17.001C15 17.5533 15.4477 18.001 16 18.001H24C24.5523 18.001 25 17.5533 25 17.001C24.9998 16.4488 24.5522 16.001 24 16.001H16Z" fill="white"/>
</svg>
