<svg width="40" height="40" viewBox="0 0 40 40" fill="none" xmlns="http://www.w3.org/2000/svg">
<path d="M20 0C31.0457 0 40 8.9543 40 20C40 31.0457 31.0457 40 20 40C8.9543 40 0 31.0457 0 20C0 8.9543 8.9543 0 20 0ZM19.8828 10.0107C19.8428 10.0153 19.8028 10.0218 19.7637 10.0312L19.6523 10.0654C19.5757 10.0937 19.502 10.1316 19.4346 10.1777L19.3389 10.2529L19.0762 10.4775C16.9682 12.2285 14.2824 13.13 11.5449 13.0049C11.3214 12.9947 11.1011 13.0596 10.9189 13.1895C10.7367 13.3194 10.6031 13.5069 10.54 13.7217C10.0487 15.3931 9.89808 17.1463 10.0977 18.877C10.2973 20.6077 10.8432 22.2811 11.7021 23.7969C12.5612 25.3127 13.7163 26.6405 15.0986 27.7012C16.481 28.7618 18.0624 29.5343 19.749 29.9717C19.9136 30.0143 20.0864 30.0143 20.251 29.9717C21.9375 29.5342 23.5191 28.7619 24.9014 27.7012C26.2835 26.6405 27.438 25.3126 28.2969 23.7969C29.1558 22.281 29.7018 20.6078 29.9014 18.877C30.1009 17.1463 29.9503 15.3931 29.459 13.7217C29.3959 13.5069 29.2623 13.3194 29.0801 13.1895C28.8979 13.0595 28.6776 12.9947 28.4541 13.0049L28.1123 13.0146C25.4902 13.053 22.9402 12.1531 20.9229 10.4775L20.668 10.2598L20.5635 10.1777C20.4961 10.1317 20.4233 10.0937 20.3467 10.0654L20.2363 10.0312L20.1748 10.0186L20.1162 10.0107L19.998 10.0039L19.8828 10.0107ZM20 17.0039C20.4402 17.0037 20.8684 17.1482 21.2178 17.416C21.5672 17.684 21.8185 18.06 21.9326 18.4854C22.0467 18.9107 22.0171 19.3617 21.8486 19.7686C21.6802 20.1754 21.3823 20.5152 21.001 20.7354L21 22.5039C20.9996 22.7584 20.9022 23.0033 20.7275 23.1885C20.5526 23.3738 20.313 23.486 20.0586 23.501C19.8043 23.5159 19.5538 23.4329 19.3584 23.2695C19.1629 23.1059 19.0369 22.8732 19.0068 22.6201L19 22.5039V20.7344C18.718 20.5718 18.48 20.3428 18.3066 20.0674C18.1332 19.7919 18.0295 19.4779 18.0049 19.1533L18 19.0039L18.0049 18.8535C18.0427 18.3504 18.2697 17.8802 18.6396 17.5371C19.0096 17.1941 19.4955 17.0037 20 17.0039Z" fill="white"/>
</svg>
